<svg viewBox="0 0 512 512" xmlns="http://www.w3.org/2000/svg"><path d="M380.14 190.14a105.1 105.1 0 0 0-7.34-23.33 64.4 64.4 0 0 0-12.66 3.33 105.64 105.64 0 0 0-19.9-44.46A106 106 0 0 0 170 210c0 2.72.11 5.41.31 8.08a50 50 0 0 0-58.23 71.83A49.78 49.78 0 0 0 136 296h247a65 65 0 0 0 54.85-99.85 65 65 0 0 0-57.71-6Z" fill="#b6c4cf"/><path d="M157.5 150.81c-.07.19-.15.37-.22.56s-.15.36-.22.55" fill="none" stroke="#02005c" stroke-linecap="round" stroke-linejoin="round" stroke-width="20"/><path d="M447.87 234.41c1.86-33.07-22.91-63.16-55.72-67.76a65.39 65.39 0 0 0-32 3.5c-6.45-34.08-30-62.91-61.32-77.47C255 71 198 88 169.85 128.24m257.8 150a64.67 64.67 0 0 0 13.64-18.62M150.83 176.7a107.71 107.71 0 0 0-.53 21.39A50.48 50.48 0 0 0 91 224.22 48.32 48.32 0 0 0 91 268c3 5 6 11 11 15a83.42 83.42 0 0 0 12 8 120.9 120.9 0 0 0 18 5q129 1.5 258 0c5 0 11-3 15.92-4.16" fill="none" stroke="#02005c" stroke-linecap="round" stroke-miterlimit="10" stroke-width="20"/><path d="M213.83 277a23.29 23.29 0 1 0 23.29 23.29V277h-23.29Z" fill="#fff"/><path d="M327.65 343.58v.06a33 33 0 0 0-31.08 44.06 33 33 0 0 0 44.06-31.08h.06v-13Zm-90.53-43.29V297h-3.33a23.29 23.29 0 0 0-23.29 23.29 22.34 22.34 0 0 0 .21 3.08 24 24 0 0 0 3.08.21 23.29 23.29 0 0 0 23.33-23.29ZM233.26 406v.08a42.26 42.26 0 0 0-38.16 60.42 42.27 42.27 0 0 0 60.43-38.16h.07V406Z" fill="#60c3e5"/><path d="M213.83 277a23.29 23.29 0 1 0 23.29 23.29h0V277h-23.29Zm-39.74 135.47-.15.37m-2.02 24.34a42.27 42.27 0 0 0 83.6-8.84h.07V386h-42.33a42 42 0 0 0-24.26 7.75m88.25-49.99c-.06.14-.11.29-.17.44m-.43 23.74a33 33 0 0 0 64-11.32h.06v-33h-33v.06a32.87 32.87 0 0 0-13.57 2.91" fill="none" stroke="#02005c" stroke-linecap="round" stroke-linejoin="round" stroke-width="20"/></svg>