<svg viewBox="0 0 512 512" xmlns="http://www.w3.org/2000/svg"><path fill="none" stroke="#02005c" stroke-linecap="round" stroke-linejoin="round" stroke-width="20" d="M216.41 324h64m-48 27.71 32-55.43m0 55.43-32-55.43m70.9 88.79h72m-54 31.18 36-62.36m0 62.36-36-62.36M156.3 425.96h100m-75 43.3 50-86.6m0 86.6-50-86.6"/><path d="M380.14 190.14a105.1 105.1 0 0 0-7.34-23.33 64.4 64.4 0 0 0-12.66 3.33 105.64 105.64 0 0 0-19.9-44.46A106 106 0 0 0 170 210c0 2.72.11 5.41.31 8.08a50 50 0 0 0-58.23 71.83A49.78 49.78 0 0 0 136 296h247a65 65 0 0 0 54.85-99.85 65 65 0 0 0-57.71-6Z" fill="#b6c4cf"/><path d="M157.5 150.81c-.07.19-.15.37-.22.56s-.15.36-.22.55" fill="none" stroke="#02005c" stroke-linecap="round" stroke-linejoin="round" stroke-width="20"/><path d="M447.87 234.41c1.86-33.07-22.91-63.16-55.72-67.76a65.39 65.39 0 0 0-32 3.5c-6.45-34.08-30-62.91-61.32-77.47C255 71 198 88 169.85 128.24m257.8 150a64.67 64.67 0 0 0 13.64-18.62M150.83 176.7a107.71 107.71 0 0 0-.53 21.39A50.48 50.48 0 0 0 91 224.22 48.32 48.32 0 0 0 91 268c3 5 6 11 11 15a83.42 83.42 0 0 0 12 8 120.9 120.9 0 0 0 18 5q129 1.5 258 0c5 0 11-3 15.92-4.16" fill="none" stroke="#02005c" stroke-linecap="round" stroke-miterlimit="10" stroke-width="20"/></svg>