<svg width="40" height="40" viewBox="0 0 40 40" fill="none" xmlns="http://www.w3.org/2000/svg">
<path fill-rule="evenodd" clip-rule="evenodd" d="M9.99992 14.1666C9.99992 11.8654 11.8654 9.99992 14.1666 9.99992C16.4678 9.99992 18.3333 11.8654 18.3333 14.1666C18.3333 16.4678 16.4678 18.3333 14.1666 18.3333C11.8654 18.3333 9.99992 16.4678 9.99992 14.1666ZM14.1666 13.3333C13.7063 13.3333 13.3333 13.7063 13.3333 14.1666C13.3333 14.6268 13.7063 14.9999 14.1666 14.9999C14.6268 14.9999 14.9999 14.6268 14.9999 14.1666C14.9999 13.7063 14.6268 13.3333 14.1666 13.3333Z" fill="#2D3648"/>
<path fill-rule="evenodd" clip-rule="evenodd" d="M3.33325 8.33325C3.33325 5.57183 5.57183 3.33325 8.33325 3.33325H31.6666C34.428 3.33325 36.6666 5.57183 36.6666 8.33325V31.6666C36.6666 34.428 34.428 36.6666 31.6666 36.6666H8.33325C5.57183 36.6666 3.33325 34.428 3.33325 31.6666V8.33325ZM8.33325 6.66659C7.41278 6.66659 6.66659 7.41278 6.66659 8.33325V31.6666C6.66659 32.3813 7.11646 32.9909 7.74849 33.2278L25.4882 15.4881C26.1391 14.8372 27.1943 14.8372 27.8452 15.4881L33.3333 20.9761V8.33325C33.3333 7.41278 32.5871 6.66659 31.6666 6.66659H8.33325ZM33.3333 25.6901L26.6667 19.0236L12.3571 33.3333H31.6666C32.5871 33.3333 33.3333 32.5871 33.3333 31.6666V25.6901Z" fill="#2D3648"/>
</svg>
